<svg width="382" height="264" viewBox="0 0 382 264" fill="none" xmlns="http://www.w3.org/2000/svg">
<rect width="382" height="264" fill="white"/>
<path d="M128.1 114.592V107.616L149.22 79.2H160.1L139.428 107.616L134.372 106.144H169.636V114.592H128.1ZM152.228 124V114.592L152.548 106.144V97.76H162.34V124H152.228Z" fill="#BABABA"/>
<path d="M190.977 124.768C187.308 124.768 184.023 123.872 181.121 122.08C178.22 120.245 175.937 117.6 174.273 114.144C172.609 110.688 171.777 106.507 171.777 101.6C171.777 96.6933 172.609 92.512 174.273 89.056C175.937 85.6 178.22 82.976 181.121 81.184C184.023 79.3493 187.308 78.432 190.977 78.432C194.689 78.432 197.975 79.3493 200.833 81.184C203.735 82.976 206.017 85.6 207.681 89.056C209.345 92.512 210.177 96.6933 210.177 101.6C210.177 106.507 209.345 110.688 207.681 114.144C206.017 117.6 203.735 120.245 200.833 122.08C197.975 123.872 194.689 124.768 190.977 124.768ZM190.977 116C192.727 116 194.241 115.509 195.521 114.528C196.844 113.547 197.868 111.989 198.593 109.856C199.361 107.723 199.745 104.971 199.745 101.6C199.745 98.2293 199.361 95.4773 198.593 93.344C197.868 91.2107 196.844 89.6533 195.521 88.672C194.241 87.6907 192.727 87.2 190.977 87.2C189.271 87.2 187.756 87.6907 186.433 88.672C185.153 89.6533 184.129 91.2107 183.361 93.344C182.636 95.4773 182.273 98.2293 182.273 101.6C182.273 104.971 182.636 107.723 183.361 109.856C184.129 111.989 185.153 113.547 186.433 114.528C187.756 115.509 189.271 116 190.977 116Z" fill="#BABABA"/>
<path d="M213.743 114.592V107.616L234.863 79.2H245.743L225.071 107.616L220.015 106.144H255.279V114.592H213.743ZM237.871 124V114.592L238.191 106.144V97.76H247.983V124H237.871Z" fill="#BABABA"/>
<path d="M125.998 173V156.2H129.214L139.126 168.296H137.566V156.2H141.406V173H138.214L128.278 160.904H129.838V173H125.998Z" fill="#BABABA"/>
<path d="M150.901 173.192C149.525 173.192 148.301 172.904 147.229 172.328C146.173 171.752 145.333 170.968 144.709 169.976C144.101 168.968 143.797 167.824 143.797 166.544C143.797 165.248 144.101 164.104 144.709 163.112C145.333 162.104 146.173 161.32 147.229 160.76C148.301 160.184 149.525 159.896 150.901 159.896C152.261 159.896 153.477 160.184 154.549 160.76C155.621 161.32 156.461 162.096 157.069 163.088C157.677 164.08 157.981 165.232 157.981 166.544C157.981 167.824 157.677 168.968 157.069 169.976C156.461 170.968 155.621 171.752 154.549 172.328C153.477 172.904 152.261 173.192 150.901 173.192ZM150.901 170.12C151.525 170.12 152.085 169.976 152.581 169.688C153.077 169.4 153.469 168.992 153.757 168.464C154.045 167.92 154.189 167.28 154.189 166.544C154.189 165.792 154.045 165.152 153.757 164.624C153.469 164.096 153.077 163.688 152.581 163.4C152.085 163.112 151.525 162.968 150.901 162.968C150.277 162.968 149.717 163.112 149.221 163.4C148.725 163.688 148.325 164.096 148.021 164.624C147.733 165.152 147.589 165.792 147.589 166.544C147.589 167.28 147.733 167.92 148.021 168.464C148.325 168.992 148.725 169.4 149.221 169.688C149.717 169.976 150.277 170.12 150.901 170.12Z" fill="#BABABA"/>
<path d="M165.404 173.192C163.884 173.192 162.7 172.808 161.852 172.04C161.004 171.256 160.58 170.096 160.58 168.56V157.232H164.324V168.512C164.324 169.056 164.468 169.48 164.756 169.784C165.044 170.072 165.436 170.216 165.932 170.216C166.524 170.216 167.028 170.056 167.444 169.736L168.452 172.376C168.068 172.648 167.604 172.856 167.06 173C166.532 173.128 165.98 173.192 165.404 173.192ZM158.588 163.256V160.376H167.54V163.256H158.588Z" fill="#BABABA"/>
<path d="M180.494 163.76H188.558V166.88H180.494V163.76ZM180.782 173H176.894V156.2H189.59V159.32H180.782V173Z" fill="#BABABA"/>
<path d="M197.438 173.192C196.062 173.192 194.838 172.904 193.766 172.328C192.71 171.752 191.87 170.968 191.246 169.976C190.638 168.968 190.334 167.824 190.334 166.544C190.334 165.248 190.638 164.104 191.246 163.112C191.87 162.104 192.71 161.32 193.766 160.76C194.838 160.184 196.062 159.896 197.438 159.896C198.798 159.896 200.014 160.184 201.086 160.76C202.158 161.32 202.998 162.096 203.606 163.088C204.214 164.08 204.518 165.232 204.518 166.544C204.518 167.824 204.214 168.968 203.606 169.976C202.998 170.968 202.158 171.752 201.086 172.328C200.014 172.904 198.798 173.192 197.438 173.192ZM197.438 170.12C198.062 170.12 198.622 169.976 199.118 169.688C199.614 169.4 200.006 168.992 200.294 168.464C200.582 167.92 200.726 167.28 200.726 166.544C200.726 165.792 200.582 165.152 200.294 164.624C200.006 164.096 199.614 163.688 199.118 163.4C198.622 163.112 198.062 162.968 197.438 162.968C196.814 162.968 196.254 163.112 195.758 163.4C195.262 163.688 194.862 164.096 194.558 164.624C194.27 165.152 194.126 165.792 194.126 166.544C194.126 167.28 194.27 167.92 194.558 168.464C194.862 168.992 195.262 169.4 195.758 169.688C196.254 169.976 196.814 170.12 197.438 170.12Z" fill="#BABABA"/>
<path d="M212.108 173.192C211.036 173.192 210.076 172.984 209.228 172.568C208.396 172.152 207.748 171.52 207.284 170.672C206.82 169.808 206.588 168.712 206.588 167.384V160.088H210.332V166.832C210.332 167.904 210.556 168.696 211.004 169.208C211.468 169.704 212.116 169.952 212.948 169.952C213.524 169.952 214.036 169.832 214.484 169.592C214.932 169.336 215.284 168.952 215.54 168.44C215.796 167.912 215.924 167.256 215.924 166.472V160.088H219.668V173H216.116V169.448L216.764 170.48C216.332 171.376 215.692 172.056 214.844 172.52C214.012 172.968 213.1 173.192 212.108 173.192Z" fill="#BABABA"/>
<path d="M230.625 159.896C231.649 159.896 232.561 160.104 233.361 160.52C234.177 160.92 234.817 161.544 235.281 162.392C235.745 163.224 235.977 164.296 235.977 165.608V173H232.233V166.184C232.233 165.144 232.001 164.376 231.537 163.88C231.089 163.384 230.449 163.136 229.617 163.136C229.025 163.136 228.489 163.264 228.009 163.52C227.545 163.76 227.177 164.136 226.905 164.648C226.649 165.16 226.521 165.816 226.521 166.616V173H222.777V160.088H226.353V163.664L225.681 162.584C226.145 161.72 226.809 161.056 227.673 160.592C228.537 160.128 229.521 159.896 230.625 159.896Z" fill="#BABABA"/>
<path d="M244.648 173.192C243.432 173.192 242.336 172.92 241.36 172.376C240.384 171.816 239.608 171.04 239.032 170.048C238.472 169.056 238.192 167.888 238.192 166.544C238.192 165.184 238.472 164.008 239.032 163.016C239.608 162.024 240.384 161.256 241.36 160.712C242.336 160.168 243.432 159.896 244.648 159.896C245.736 159.896 246.688 160.136 247.504 160.616C248.32 161.096 248.952 161.824 249.4 162.8C249.848 163.776 250.072 165.024 250.072 166.544C250.072 168.048 249.856 169.296 249.424 170.288C248.992 171.264 248.368 171.992 247.552 172.472C246.752 172.952 245.784 173.192 244.648 173.192ZM245.296 170.12C245.904 170.12 246.456 169.976 246.952 169.688C247.448 169.4 247.84 168.992 248.128 168.464C248.432 167.92 248.584 167.28 248.584 166.544C248.584 165.792 248.432 165.152 248.128 164.624C247.84 164.096 247.448 163.688 246.952 163.4C246.456 163.112 245.904 162.968 245.296 162.968C244.672 162.968 244.112 163.112 243.616 163.4C243.12 163.688 242.72 164.096 242.416 164.624C242.128 165.152 241.984 165.792 241.984 166.544C241.984 167.28 242.128 167.92 242.416 168.464C242.72 168.992 243.12 169.4 243.616 169.688C244.112 169.976 244.672 170.12 245.296 170.12ZM248.68 173V170.36L248.752 166.52L248.512 162.704V155.192H252.256V173H248.68Z" fill="#BABABA"/>
</svg>
